ISO-10303-21;
HEADER;
/* Generated by software containing ST-Developer
 * from STEP Tools, Inc. (www.steptools.com) 
 */

FILE_DESCRIPTION(
/* description */ (''),
/* implementation_level */ '2;1');

FILE_NAME(
/* name */ '',
/* time_stamp */ '2026-07-16T20:45:03+09:00',
/* author */ (''),
/* organization */ (''),
/* preprocessor_version */ 'ST-DEVELOPER v20.1',
/* originating_system */ 'Autodesk Translation Framework v15.8.0.0',
/* authorisation */ '');

FILE_SCHEMA (('AUTOMOTIVE_DESIGN { 1 0 10303 214 3 1 1 }'));
ENDSEC;

DATA;
#10=MECHANICAL_DESIGN_GEOMETRIC_PRESENTATION_REPRESENTATION('',(#13),#657);
#11=SHAPE_REPRESENTATION_RELATIONSHIP('SRR','None',#664,#12);
#12=ADVANCED_BREP_SHAPE_REPRESENTATION('',(#14),#656);
#13=STYLED_ITEM('',(#674),#14);
#14=MANIFOLD_SOLID_BREP('\X2\BCF8CCB4\X0\1',#318);
#15=FACE_BOUND('',#53,.T.);
#16=FACE_BOUND('',#56,.T.);
#17=FACE_BOUND('',#60,.T.);
#18=FACE_BOUND('',#63,.T.);
#19=FACE_BOUND('',#67,.T.);
#20=PLANE('',#336);
#21=PLANE('',#340);
#22=PLANE('',#344);
#23=PLANE('',#345);
#24=PLANE('',#346);
#25=PLANE('',#351);
#26=PLANE('',#353);
#27=PLANE('',#354);
#28=PLANE('',#355);
#29=PLANE('',#356);
#30=PLANE('',#357);
#31=FACE_OUTER_BOUND('',#50,.T.);
#32=FACE_OUTER_BOUND('',#51,.T.);
#33=FACE_OUTER_BOUND('',#52,.T.);
#34=FACE_OUTER_BOUND('',#54,.T.);
#35=FACE_OUTER_BOUND('',#55,.T.);
#36=FACE_OUTER_BOUND('',#57,.T.);
#37=FACE_OUTER_BOUND('',#58,.T.);
#38=FACE_OUTER_BOUND('',#59,.T.);
#39=FACE_OUTER_BOUND('',#61,.T.);
#40=FACE_OUTER_BOUND('',#62,.T.);
#41=FACE_OUTER_BOUND('',#64,.T.);
#42=FACE_OUTER_BOUND('',#65,.T.);
#43=FACE_OUTER_BOUND('',#66,.T.);
#44=FACE_OUTER_BOUND('',#68,.T.);
#45=FACE_OUTER_BOUND('',#69,.T.);
#46=FACE_OUTER_BOUND('',#70,.T.);
#47=FACE_OUTER_BOUND('',#71,.T.);
#48=FACE_OUTER_BOUND('',#72,.T.);
#49=FACE_OUTER_BOUND('',#73,.T.);
#50=EDGE_LOOP('',(#209,#210,#211,#212));
#51=EDGE_LOOP('',(#213,#214,#215,#216));
#52=EDGE_LOOP('',(#217));
#53=EDGE_LOOP('',(#218));
#54=EDGE_LOOP('',(#219,#220,#221,#222));
#55=EDGE_LOOP('',(#223));
#56=EDGE_LOOP('',(#224));
#57=EDGE_LOOP('',(#225,#226,#227,#228,#229));
#58=EDGE_LOOP('',(#230,#231,#232,#233));
#59=EDGE_LOOP('',(#234,#235));
#60=EDGE_LOOP('',(#236,#237,#238,#239,#240,#241));
#61=EDGE_LOOP('',(#242,#243,#244,#245));
#62=EDGE_LOOP('',(#246,#247,#248,#249,#250,#251));
#63=EDGE_LOOP('',(#252,#253));
#64=EDGE_LOOP('',(#254,#255,#256,#257,#258));
#65=EDGE_LOOP('',(#259,#260,#261,#262,#263,#264));
#66=EDGE_LOOP('',(#265));
#67=EDGE_LOOP('',(#266));
#68=EDGE_LOOP('',(#267,#268,#269,#270));
#69=EDGE_LOOP('',(#271,#272,#273,#274));
#70=EDGE_LOOP('',(#275,#276,#277,#278));
#71=EDGE_LOOP('',(#279,#280,#281,#282));
#72=EDGE_LOOP('',(#283,#284,#285,#286));
#73=EDGE_LOOP('',(#287,#288,#289,#290));
#74=ELLIPSE('',#332,1.1682393529205,1.1183207126751);
#75=ELLIPSE('',#333,1.38728423159331,1.32800584630415);
#76=ELLIPSE('',#334,3.65074797785906,3.49475222709868);
#77=ELLIPSE('',#335,2.92059838228876,2.79580178167855);
#78=ELLIPSE('',#337,2.00791138782521,1.92211372490368);
#79=ELLIPSE('',#338,1.64283659003893,1.572638502197);
#80=ELLIPSE('',#339,2.00791138782587,1.92211372490175);
#81=ELLIPSE('',#341,3.65074797786321,3.49475222709421);
#82=ELLIPSE('',#342,3.65074797785906,3.49475222709868);
#83=ELLIPSE('',#343,2.92059838228876,2.79580178167855);
#84=ELLIPSE('',#347,1.38728423159331,1.32800584630415);
#85=ELLIPSE('',#348,1.16823935291958,1.11832071266866);
#86=ELLIPSE('',#349,1.1682393529205,1.1183207126751);
#87=ELLIPSE('',#350,1.16823935292308,1.11832071267557);
#88=ELLIPSE('',#352,1.64283659004757,1.57263850219674);
#89=LINE('',#459,#115);
#90=LINE('',#463,#116);
#91=LINE('',#485,#117);
#92=LINE('',#489,#118);
#93=LINE('',#516,#119);
#94=LINE('',#539,#120);
#95=LINE('',#562,#121);
#96=LINE('',#564,#122);
#97=LINE('',#566,#123);
#98=LINE('',#568,#124);
#99=LINE('',#570,#125);
#100=LINE('',#571,#126);
#101=LINE('',#574,#127);
#102=LINE('',#576,#128);
#103=LINE('',#577,#129);
#104=LINE('',#580,#130);
#105=LINE('',#582,#131);
#106=LINE('',#584,#132);
#107=LINE('',#586,#133);
#108=LINE('',#587,#134);
#109=LINE('',#625,#135);
#110=LINE('',#644,#136);
#111=LINE('',#646,#137);
#112=LINE('',#648,#138);
#113=LINE('',#650,#139);
#114=LINE('',#652,#140);
#115=VECTOR('',#360,10.);
#116=VECTOR('',#363,10.);
#117=VECTOR('',#366,10.);
#118=VECTOR('',#369,10.);
#119=VECTOR('',#380,10.);
#120=VECTOR('',#387,10.);
#121=VECTOR('',#392,10.);
#122=VECTOR('',#393,10.);
#123=VECTOR('',#394,10.);
#124=VECTOR('',#395,10.);
#125=VECTOR('',#396,10.);
#126=VECTOR('',#397,10.);
#127=VECTOR('',#400,10.);
#128=VECTOR('',#401,10.);
#129=VECTOR('',#402,10.);
#130=VECTOR('',#405,10.);
#131=VECTOR('',#406,10.);
#132=VECTOR('',#407,10.);
#133=VECTOR('',#408,10.);
#134=VECTOR('',#409,10.);
#135=VECTOR('',#416,10.);
#136=VECTOR('',#423,10.);
#137=VECTOR('',#426,10.);
#138=VECTOR('',#429,10.);
#139=VECTOR('',#432,10.);
#140=VECTOR('',#435,10.);
#141=VERTEX_POINT('',#457);
#142=VERTEX_POINT('',#458);
#143=VERTEX_POINT('',#460);
#144=VERTEX_POINT('',#462);
#145=VERTEX_POINT('',#483);
#146=VERTEX_POINT('',#484);
#147=VERTEX_POINT('',#486);
#148=VERTEX_POINT('',#488);
#149=VERTEX_POINT('',#492);
#150=VERTEX_POINT('',#494);
#151=VERTEX_POINT('',#514);
#152=VERTEX_POINT('',#518);
#153=VERTEX_POINT('',#560);
#154=VERTEX_POINT('',#561);
#155=VERTEX_POINT('',#563);
#156=VERTEX_POINT('',#565);
#157=VERTEX_POINT('',#567);
#158=VERTEX_POINT('',#569);
#159=VERTEX_POINT('',#573);
#160=VERTEX_POINT('',#575);
#161=VERTEX_POINT('',#579);
#162=VERTEX_POINT('',#581);
#163=VERTEX_POINT('',#583);
#164=VERTEX_POINT('',#585);
#165=VERTEX_POINT('',#607);
#166=VERTEX_POINT('',#624);
#167=VERTEX_POINT('',#628);
#168=EDGE_CURVE('',#141,#142,#89,.T.);
#169=EDGE_CURVE('',#141,#143,#74,.T.);
#170=EDGE_CURVE('',#143,#144,#90,.T.);
#171=EDGE_CURVE('',#142,#144,#75,.T.);
#172=EDGE_CURVE('',#145,#146,#91,.T.);
#173=EDGE_CURVE('',#145,#147,#76,.T.);
#174=EDGE_CURVE('',#148,#147,#92,.T.);
#175=EDGE_CURVE('',#146,#148,#77,.T.);
#176=EDGE_CURVE('',#149,#149,#78,.T.);
#177=EDGE_CURVE('',#150,#150,#79,.T.);
#178=EDGE_CURVE('',#151,#151,#80,.T.);
#179=EDGE_CURVE('',#151,#149,#93,.T.);
#180=EDGE_CURVE('',#152,#152,#81,.T.);
#181=EDGE_CURVE('',#147,#145,#82,.T.);
#182=EDGE_CURVE('',#147,#152,#94,.T.);
#183=EDGE_CURVE('',#148,#146,#83,.T.);
#184=EDGE_CURVE('',#153,#154,#95,.T.);
#185=EDGE_CURVE('',#154,#155,#96,.T.);
#186=EDGE_CURVE('',#155,#156,#97,.T.);
#187=EDGE_CURVE('',#156,#157,#98,.T.);
#188=EDGE_CURVE('',#157,#158,#99,.T.);
#189=EDGE_CURVE('',#158,#153,#100,.T.);
#190=EDGE_CURVE('',#153,#159,#101,.T.);
#191=EDGE_CURVE('',#158,#160,#102,.T.);
#192=EDGE_CURVE('',#160,#159,#103,.T.);
#193=EDGE_CURVE('',#161,#160,#104,.T.);
#194=EDGE_CURVE('',#162,#161,#105,.T.);
#195=EDGE_CURVE('',#163,#162,#106,.T.);
#196=EDGE_CURVE('',#164,#163,#107,.T.);
#197=EDGE_CURVE('',#159,#164,#108,.T.);
#198=EDGE_CURVE('',#144,#142,#84,.T.);
#199=EDGE_CURVE('',#143,#165,#85,.T.);
#200=EDGE_CURVE('',#165,#141,#86,.T.);
#201=EDGE_CURVE('',#166,#165,#109,.T.);
#202=EDGE_CURVE('',#166,#166,#87,.T.);
#203=EDGE_CURVE('',#167,#167,#88,.T.);
#204=EDGE_CURVE('',#167,#150,#110,.T.);
#205=EDGE_CURVE('',#154,#164,#111,.T.);
#206=EDGE_CURVE('',#155,#163,#112,.T.);
#207=EDGE_CURVE('',#156,#162,#113,.T.);
#208=EDGE_CURVE('',#157,#161,#114,.T.);
#209=ORIENTED_EDGE('',*,*,#168,.F.);
#210=ORIENTED_EDGE('',*,*,#169,.T.);
#211=ORIENTED_EDGE('',*,*,#170,.T.);
#212=ORIENTED_EDGE('',*,*,#171,.F.);
#213=ORIENTED_EDGE('',*,*,#172,.F.);
#214=ORIENTED_EDGE('',*,*,#173,.T.);
#215=ORIENTED_EDGE('',*,*,#174,.F.);
#216=ORIENTED_EDGE('',*,*,#175,.F.);
#217=ORIENTED_EDGE('',*,*,#176,.T.);
#218=ORIENTED_EDGE('',*,*,#177,.T.);
#219=ORIENTED_EDGE('',*,*,#178,.F.);
#220=ORIENTED_EDGE('',*,*,#179,.T.);
#221=ORIENTED_EDGE('',*,*,#176,.F.);
#222=ORIENTED_EDGE('',*,*,#179,.F.);
#223=ORIENTED_EDGE('',*,*,#180,.T.);
#224=ORIENTED_EDGE('',*,*,#178,.T.);
#225=ORIENTED_EDGE('',*,*,#181,.F.);
#226=ORIENTED_EDGE('',*,*,#182,.T.);
#227=ORIENTED_EDGE('',*,*,#180,.F.);
#228=ORIENTED_EDGE('',*,*,#182,.F.);
#229=ORIENTED_EDGE('',*,*,#173,.F.);
#230=ORIENTED_EDGE('',*,*,#172,.T.);
#231=ORIENTED_EDGE('',*,*,#183,.F.);
#232=ORIENTED_EDGE('',*,*,#174,.T.);
#233=ORIENTED_EDGE('',*,*,#181,.T.);
#234=ORIENTED_EDGE('',*,*,#183,.T.);
#235=ORIENTED_EDGE('',*,*,#175,.T.);
#236=ORIENTED_EDGE('',*,*,#184,.T.);
#237=ORIENTED_EDGE('',*,*,#185,.T.);
#238=ORIENTED_EDGE('',*,*,#186,.T.);
#239=ORIENTED_EDGE('',*,*,#187,.T.);
#240=ORIENTED_EDGE('',*,*,#188,.T.);
#241=ORIENTED_EDGE('',*,*,#189,.T.);
#242=ORIENTED_EDGE('',*,*,#190,.F.);
#243=ORIENTED_EDGE('',*,*,#189,.F.);
#244=ORIENTED_EDGE('',*,*,#191,.T.);
#245=ORIENTED_EDGE('',*,*,#192,.T.);
#246=ORIENTED_EDGE('',*,*,#193,.F.);
#247=ORIENTED_EDGE('',*,*,#194,.F.);
#248=ORIENTED_EDGE('',*,*,#195,.F.);
#249=ORIENTED_EDGE('',*,*,#196,.F.);
#250=ORIENTED_EDGE('',*,*,#197,.F.);
#251=ORIENTED_EDGE('',*,*,#192,.F.);
#252=ORIENTED_EDGE('',*,*,#198,.T.);
#253=ORIENTED_EDGE('',*,*,#171,.T.);
#254=ORIENTED_EDGE('',*,*,#168,.T.);
#255=ORIENTED_EDGE('',*,*,#198,.F.);
#256=ORIENTED_EDGE('',*,*,#170,.F.);
#257=ORIENTED_EDGE('',*,*,#199,.T.);
#258=ORIENTED_EDGE('',*,*,#200,.T.);
#259=ORIENTED_EDGE('',*,*,#199,.F.);
#260=ORIENTED_EDGE('',*,*,#169,.F.);
#261=ORIENTED_EDGE('',*,*,#200,.F.);
#262=ORIENTED_EDGE('',*,*,#201,.F.);
#263=ORIENTED_EDGE('',*,*,#202,.F.);
#264=ORIENTED_EDGE('',*,*,#201,.T.);
#265=ORIENTED_EDGE('',*,*,#203,.F.);
#266=ORIENTED_EDGE('',*,*,#202,.T.);
#267=ORIENTED_EDGE('',*,*,#177,.F.);
#268=ORIENTED_EDGE('',*,*,#204,.F.);
#269=ORIENTED_EDGE('',*,*,#203,.T.);
#270=ORIENTED_EDGE('',*,*,#204,.T.);
#271=ORIENTED_EDGE('',*,*,#205,.F.);
#272=ORIENTED_EDGE('',*,*,#184,.F.);
#273=ORIENTED_EDGE('',*,*,#190,.T.);
#274=ORIENTED_EDGE('',*,*,#197,.T.);
#275=ORIENTED_EDGE('',*,*,#206,.F.);
#276=ORIENTED_EDGE('',*,*,#185,.F.);
#277=ORIENTED_EDGE('',*,*,#205,.T.);
#278=ORIENTED_EDGE('',*,*,#196,.T.);
#279=ORIENTED_EDGE('',*,*,#207,.F.);
#280=ORIENTED_EDGE('',*,*,#186,.F.);
#281=ORIENTED_EDGE('',*,*,#206,.T.);
#282=ORIENTED_EDGE('',*,*,#195,.T.);
#283=ORIENTED_EDGE('',*,*,#208,.F.);
#284=ORIENTED_EDGE('',*,*,#187,.F.);
#285=ORIENTED_EDGE('',*,*,#207,.T.);
#286=ORIENTED_EDGE('',*,*,#194,.T.);
#287=ORIENTED_EDGE('',*,*,#191,.F.);
#288=ORIENTED_EDGE('',*,*,#188,.F.);
#289=ORIENTED_EDGE('',*,*,#208,.T.);
#290=ORIENTED_EDGE('',*,*,#193,.T.);
#291=(
BOUNDED_SURFACE()
B_SPLINE_SURFACE(2,1,((#439,#440),(#441,#442),(#443,#444),(#445,#446),(#447,
#448),(#449,#450),(#451,#452),(#453,#454),(#455,#456)),.UNSPECIFIED.,.T.,
 .F.,.F.)
B_SPLINE_SURFACE_WITH_KNOTS((3,2,2,2,3),(2,2),(-4.712388980384,-4.188790204786,
-2.094395102393,1.00008890058234E-12,1.570796326795),(-0.212132033946,0.212132034766),
 .UNSPECIFIED.)
GEOMETRIC_REPRESENTATION_ITEM()
RATIONAL_B_SPLINE_SURFACE(((0.8125,0.8125),(0.875,0.875),(1.,1.),(0.5,0.5),
(1.,1.),(0.5,0.5),(1.,1.),(0.625,0.625),(0.8125,0.8125)))
REPRESENTATION_ITEM('')
SURFACE()
);
#292=(
BOUNDED_SURFACE()
B_SPLINE_SURFACE(2,1,((#465,#466),(#467,#468),(#469,#470),(#471,#472),(#473,
#474),(#475,#476),(#477,#478),(#479,#480),(#481,#482)),.UNSPECIFIED.,.T.,
 .F.,.F.)
B_SPLINE_SURFACE_WITH_KNOTS((3,2,2,2,3),(2,2),(-4.712388980384,-4.188790204786,
-2.094395102393,1.00008890058234E-12,1.570796326795),(-0.707106781178,0.707106781195),
 .UNSPECIFIED.)
GEOMETRIC_REPRESENTATION_ITEM()
RATIONAL_B_SPLINE_SURFACE(((0.8125,0.8125),(0.875,0.875),(1.,1.),(0.5,0.5),
(1.,1.),(0.5,0.5),(1.,1.),(0.625,0.625),(0.8125,0.8125)))
REPRESENTATION_ITEM('')
SURFACE()
);
#293=(
BOUNDED_SURFACE()
B_SPLINE_SURFACE(2,1,((#496,#497),(#498,#499),(#500,#501),(#502,#503),(#504,
#505),(#506,#507),(#508,#509),(#510,#511),(#512,#513)),.UNSPECIFIED.,.T.,
 .F.,.F.)
B_SPLINE_SURFACE_WITH_KNOTS((3,2,2,2,3),(2,2),(3.14159265359,4.188790204786,
6.28318530718,8.377580409573,9.424777960769),(0.,0.640044353268),
 .UNSPECIFIED.)
GEOMETRIC_REPRESENTATION_ITEM()
RATIONAL_B_SPLINE_SURFACE(((0.75,0.75),(0.75,0.75),(1.,1.),(0.5,0.5),(1.,
1.),(0.5,0.5),(1.,1.),(0.75,0.75),(0.75,0.75)))
REPRESENTATION_ITEM('')
SURFACE()
);
#294=(
BOUNDED_SURFACE()
B_SPLINE_SURFACE(2,1,((#520,#521),(#522,#523),(#524,#525),(#526,#527),(#528,
#529),(#530,#531),(#532,#533),(#534,#535),(#536,#537)),.UNSPECIFIED.,.T.,
 .F.,.F.)
B_SPLINE_SURFACE_WITH_KNOTS((3,2,2,2,3),(2,2),(3.14159265359,4.188790204786,
6.28318530718,8.377580409573,9.424777960769),(0.,0.52096633405548),
 .UNSPECIFIED.)
GEOMETRIC_REPRESENTATION_ITEM()
RATIONAL_B_SPLINE_SURFACE(((0.75,0.75),(0.75,0.75),(1.,1.),(0.5,0.5),(1.,
1.),(0.5,0.5),(1.,1.),(0.75,0.75),(0.75,0.75)))
REPRESENTATION_ITEM('')
SURFACE()
);
#295=(
BOUNDED_SURFACE()
B_SPLINE_SURFACE(2,1,((#540,#541),(#542,#543),(#544,#545),(#546,#547),(#548,
#549),(#550,#551),(#552,#553),(#554,#555),(#556,#557)),.UNSPECIFIED.,.T.,
 .F.,.F.)
B_SPLINE_SURFACE_WITH_KNOTS((3,2,2,2,3),(2,2),(1.570796326795,2.094395102393,
4.188790204786,6.28318530718,7.853981633974),(-0.707106781178,0.707106781195),
 .UNSPECIFIED.)
GEOMETRIC_REPRESENTATION_ITEM()
RATIONAL_B_SPLINE_SURFACE(((0.8125,0.8125),(0.875,0.875),(1.,1.),(0.5,0.5),
(1.,1.),(0.5,0.5),(1.,1.),(0.625,0.625),(0.8125,0.8125)))
REPRESENTATION_ITEM('')
SURFACE()
);
#296=(
BOUNDED_SURFACE()
B_SPLINE_SURFACE(2,1,((#589,#590),(#591,#592),(#593,#594),(#595,#596),(#597,
#598),(#599,#600),(#601,#602),(#603,#604),(#605,#606)),.UNSPECIFIED.,.T.,
 .F.,.F.)
B_SPLINE_SURFACE_WITH_KNOTS((3,2,2,2,3),(2,2),(1.570796326795,2.094395102393,
4.188790204786,6.28318530718,7.853981633974),(-0.212132033946,0.212132034766),
 .UNSPECIFIED.)
GEOMETRIC_REPRESENTATION_ITEM()
RATIONAL_B_SPLINE_SURFACE(((0.8125,0.8125),(0.875,0.875),(1.,1.),(0.5,0.5),
(1.,1.),(0.5,0.5),(1.,1.),(0.625,0.625),(0.8125,0.8125)))
REPRESENTATION_ITEM('')
SURFACE()
);
#297=(
BOUNDED_SURFACE()
B_SPLINE_SURFACE(2,1,((#610,#611),(#612,#613),(#614,#615),(#616,#617),(#618,
#619),(#620,#621),(#622,#623)),.UNSPECIFIED.,.T.,.F.,.F.)
B_SPLINE_SURFACE_WITH_KNOTS((3,2,2,3),(2,2),(0.,2.094395102393,4.188790204786,
6.28318530718),(0.,1.08658692531804),.UNSPECIFIED.)
GEOMETRIC_REPRESENTATION_ITEM()
RATIONAL_B_SPLINE_SURFACE(((1.,1.),(0.5,0.5),(1.,1.),(0.5,0.5),(1.,1.),
(0.5,0.5),(1.,1.)))
REPRESENTATION_ITEM('')
SURFACE()
);
#298=(
BOUNDED_SURFACE()
B_SPLINE_SURFACE(2,1,((#630,#631),(#632,#633),(#634,#635),(#636,#637),(#638,
#639),(#640,#641),(#642,#643)),.UNSPECIFIED.,.T.,.F.,.F.)
B_SPLINE_SURFACE_WITH_KNOTS((3,2,2,3),(2,2),(0.,2.094395102393,4.188790204786,
6.28318530718),(0.,0.297695048033403),.UNSPECIFIED.)
GEOMETRIC_REPRESENTATION_ITEM()
RATIONAL_B_SPLINE_SURFACE(((1.,1.),(0.5,0.5),(1.,1.),(0.5,0.5),(1.,1.),
(0.5,0.5),(1.,1.)))
REPRESENTATION_ITEM('')
SURFACE()
);
#299=ADVANCED_FACE('',(#31),#291,.F.);
#300=ADVANCED_FACE('',(#32),#292,.T.);
#301=ADVANCED_FACE('',(#33,#15),#20,.T.);
#302=ADVANCED_FACE('',(#34),#293,.T.);
#303=ADVANCED_FACE('',(#35,#16),#21,.T.);
#304=ADVANCED_FACE('',(#36),#294,.T.);
#305=ADVANCED_FACE('',(#37),#295,.T.);
#306=ADVANCED_FACE('',(#38,#17),#22,.F.);
#307=ADVANCED_FACE('',(#39),#23,.T.);
#308=ADVANCED_FACE('',(#40,#18),#24,.T.);
#309=ADVANCED_FACE('',(#41),#296,.F.);
#310=ADVANCED_FACE('',(#42),#297,.F.);
#311=ADVANCED_FACE('',(#43,#19),#25,.F.);
#312=ADVANCED_FACE('',(#44),#298,.T.);
#313=ADVANCED_FACE('',(#45),#26,.T.);
#314=ADVANCED_FACE('',(#46),#27,.T.);
#315=ADVANCED_FACE('',(#47),#28,.T.);
#316=ADVANCED_FACE('',(#48),#29,.T.);
#317=ADVANCED_FACE('',(#49),#30,.T.);
#318=CLOSED_SHELL('',(#299,#300,#301,#302,#303,#304,#305,#306,#307,#308,
#309,#310,#311,#312,#313,#314,#315,#316,#317));
#319=DERIVED_UNIT_ELEMENT(#321,1.);
#320=DERIVED_UNIT_ELEMENT(#659,-3.);
#321=(
MASS_UNIT()
NAMED_UNIT(*)
SI_UNIT(.KILO.,.GRAM.)
);
#322=DERIVED_UNIT((#319,#320));
#323=MEASURE_REPRESENTATION_ITEM('density measure',
POSITIVE_RATIO_MEASURE(7850.),#322);
#324=PROPERTY_DEFINITION_REPRESENTATION(#329,#326);
#325=PROPERTY_DEFINITION_REPRESENTATION(#330,#327);
#326=REPRESENTATION('material name',(#328),#656);
#327=REPRESENTATION('density',(#323),#656);
#328=DESCRIPTIVE_REPRESENTATION_ITEM('\X2\AC15CCA0\X0\','\X2\AC15CCA0\X0\');
#329=PROPERTY_DEFINITION('material property','material name',#666);
#330=PROPERTY_DEFINITION('material property','density of part',#666);
#331=AXIS2_PLACEMENT_3D('',#438,#358,#359);
#332=AXIS2_PLACEMENT_3D('',#461,#361,#362);
#333=AXIS2_PLACEMENT_3D('',#464,#364,#365);
#334=AXIS2_PLACEMENT_3D('',#487,#367,#368);
#335=AXIS2_PLACEMENT_3D('',#490,#370,#371);
#336=AXIS2_PLACEMENT_3D('',#491,#372,#373);
#337=AXIS2_PLACEMENT_3D('',#493,#374,#375);
#338=AXIS2_PLACEMENT_3D('',#495,#376,#377);
#339=AXIS2_PLACEMENT_3D('',#515,#378,#379);
#340=AXIS2_PLACEMENT_3D('',#517,#381,#382);
#341=AXIS2_PLACEMENT_3D('',#519,#383,#384);
#342=AXIS2_PLACEMENT_3D('',#538,#385,#386);
#343=AXIS2_PLACEMENT_3D('',#558,#388,#389);
#344=AXIS2_PLACEMENT_3D('',#559,#390,#391);
#345=AXIS2_PLACEMENT_3D('',#572,#398,#399);
#346=AXIS2_PLACEMENT_3D('',#578,#403,#404);
#347=AXIS2_PLACEMENT_3D('',#588,#410,#411);
#348=AXIS2_PLACEMENT_3D('',#608,#412,#413);
#349=AXIS2_PLACEMENT_3D('',#609,#414,#415);
#350=AXIS2_PLACEMENT_3D('',#626,#417,#418);
#351=AXIS2_PLACEMENT_3D('',#627,#419,#420);
#352=AXIS2_PLACEMENT_3D('',#629,#421,#422);
#353=AXIS2_PLACEMENT_3D('',#645,#424,#425);
#354=AXIS2_PLACEMENT_3D('',#647,#427,#428);
#355=AXIS2_PLACEMENT_3D('',#649,#430,#431);
#356=AXIS2_PLACEMENT_3D('',#651,#433,#434);
#357=AXIS2_PLACEMENT_3D('',#653,#436,#437);
#358=DIRECTION('axis',(0.,0.,1.));
#359=DIRECTION('refdir',(1.,0.,0.));
#360=DIRECTION('',(0.714639531865752,0.654631953692099,-0.246469764271329));
#361=DIRECTION('center_axis',(-1.,-8.76852907296433E-15,1.9797797010615E-14));
#362=DIRECTION('ref_axis',(-1.97977970104975E-14,-1.34031845810567E-11,
-1.));
#363=DIRECTION('',(0.714234719196197,0.644707628445663,-0.272435019259086));
#364=DIRECTION('center_axis',(-1.,1.09252627250814E-14,-1.0957067366398E-14));
#365=DIRECTION('ref_axis',(-1.09570673661823E-14,1.97422989614246E-11,1.));
#366=DIRECTION('',(0.713797130925433,0.633811508002835,-0.297954070631352));
#367=DIRECTION('center_axis',(1.,0.,0.));
#368=DIRECTION('ref_axis',(0.,-3.55060754199836E-12,-1.));
#369=DIRECTION('',(-0.714234719206943,-0.64470762843551,0.27243501925494));
#370=DIRECTION('center_axis',(1.,0.,0.));
#371=DIRECTION('ref_axis',(0.,-3.91385986613456E-12,-1.));
#372=DIRECTION('center_axis',(-1.,0.,0.));
#373=DIRECTION('ref_axis',(0.,0.,1.));
#374=DIRECTION('center_axis',(-1.,1.17841685216331E-14,8.29324099557415E-15));
#375=DIRECTION('ref_axis',(8.29324099569872E-15,1.05711423020187E-11,1.));
#376=DIRECTION('center_axis',(1.,0.,0.));
#377=DIRECTION('ref_axis',(0.,2.87760888848347E-11,1.));
#378=DIRECTION('center_axis',(1.,-8.51225946982669E-15,-1.41033168479936E-14));
#379=DIRECTION('ref_axis',(-1.41033168478394E-14,1.81126162921986E-11,-1.));
#380=DIRECTION('',(-1.,0.,0.));
#381=DIRECTION('center_axis',(-1.,0.,0.));
#382=DIRECTION('ref_axis',(0.,0.,1.));
#383=DIRECTION('center_axis',(-1.,2.26872904551866E-15,8.69121597866443E-15));
#384=DIRECTION('ref_axis',(8.6912159786013E-15,-2.78264156407518E-11,1.));
#385=DIRECTION('center_axis',(1.,0.,0.));
#386=DIRECTION('ref_axis',(0.,-3.55060754199836E-12,-1.));
#387=DIRECTION('',(-1.,0.,0.));
#388=DIRECTION('center_axis',(1.,0.,0.));
#389=DIRECTION('ref_axis',(0.,-3.91385986613456E-12,-1.));
#390=DIRECTION('center_axis',(-1.,0.,0.));
#391=DIRECTION('ref_axis',(0.,0.,1.));
#392=DIRECTION('',(0.,0.598591253157788,-0.801054624631172));
#393=DIRECTION('',(0.,-0.361102291637188,-0.93252621141412));
#394=DIRECTION('',(0.,-0.989457494277264,-0.144823572040456));
#395=DIRECTION('',(0.,-0.598591253157787,0.801054624631173));
#396=DIRECTION('',(0.,0.361102291637188,0.93252621141412));
#397=DIRECTION('',(0.,0.989457494277359,0.144823572039811));
#398=DIRECTION('center_axis',(0.,0.144823572039811,-0.989457494277359));
#399=DIRECTION('ref_axis',(-1.,0.,0.));
#400=DIRECTION('',(-1.,0.,0.));
#401=DIRECTION('',(-1.,0.,0.));
#402=DIRECTION('',(0.,0.989457494277359,0.144823572039811));
#403=DIRECTION('center_axis',(1.,0.,0.));
#404=DIRECTION('ref_axis',(0.,0.,-1.));
#405=DIRECTION('',(0.,0.361102291637188,0.93252621141412));
#406=DIRECTION('',(0.,-0.598591253157787,0.801054624631173));
#407=DIRECTION('',(0.,-0.989457494277264,-0.144823572040456));
#408=DIRECTION('',(0.,-0.361102291637188,-0.93252621141412));
#409=DIRECTION('',(0.,0.598591253157788,-0.801054624631172));
#410=DIRECTION('center_axis',(-1.,1.09252627250814E-14,-1.0957067366398E-14));
#411=DIRECTION('ref_axis',(-1.09570673661823E-14,1.97422989614246E-11,1.));
#412=DIRECTION('center_axis',(-1.,-1.19218061779217E-14,-2.82125235164764E-14));
#413=DIRECTION('ref_axis',(2.82125235165007E-14,-2.03674880675128E-12,-1.));
#414=DIRECTION('center_axis',(-1.,-8.76852907296433E-15,1.9797797010615E-14));
#415=DIRECTION('ref_axis',(-1.97977970104975E-14,-1.34031845810567E-11,
-1.));
#416=DIRECTION('',(1.,0.,0.));
#417=DIRECTION('center_axis',(1.,0.,0.));
#418=DIRECTION('ref_axis',(0.,-8.10099031524659E-13,-1.));
#419=DIRECTION('center_axis',(1.,0.,0.));
#420=DIRECTION('ref_axis',(0.,0.,-1.));
#421=DIRECTION('center_axis',(1.,0.,0.));
#422=DIRECTION('ref_axis',(0.,-2.02212291354232E-12,-1.));
#423=DIRECTION('',(1.,0.,0.));
#424=DIRECTION('center_axis',(0.,-0.801054624629071,-0.598591253160601));
#425=DIRECTION('ref_axis',(-1.,0.,0.));
#426=DIRECTION('',(-1.,0.,0.));
#427=DIRECTION('center_axis',(0.,-0.932526211415249,0.361102291634271));
#428=DIRECTION('ref_axis',(0.,-0.361102291634271,-0.932526211415249));
#429=DIRECTION('',(-1.,0.,0.));
#430=DIRECTION('center_axis',(0.,-0.144823572039811,0.989457494277359));
#431=DIRECTION('ref_axis',(1.,0.,0.));
#432=DIRECTION('',(-1.,0.,0.));
#433=DIRECTION('center_axis',(0.,0.801054624629072,0.5985912531606));
#434=DIRECTION('ref_axis',(1.,0.,0.));
#435=DIRECTION('',(-1.,0.,0.));
#436=DIRECTION('center_axis',(0.,0.932526211413788,-0.361102291638044));
#437=DIRECTION('ref_axis',(0.,0.361102291638044,0.932526211413788));
#438=CARTESIAN_POINT('',(0.,0.,0.));
#439=CARTESIAN_POINT('Ctrl Pts',(195.94504940225,-24.85601781033,213.34197168543));
#440=CARTESIAN_POINT('Ctrl Pts',(196.16039593583,-24.65875371324,213.26770150165));
#441=CARTESIAN_POINT('Ctrl Pts',(195.94504940225,-24.76219458664,213.61391277124));
#442=CARTESIAN_POINT('Ctrl Pts',(196.16039593583,-24.54733863511,213.59063154105));
#443=CARTESIAN_POINT('Ctrl Pts',(195.94504940225,-24.80059041005,213.90018076794));
#444=CARTESIAN_POINT('Ctrl Pts',(196.16039593583,-24.59293367541,213.93057478713));
#445=CARTESIAN_POINT('Ctrl Pts',(195.94504940225,-25.06936117392,215.90405674485));
#446=CARTESIAN_POINT('Ctrl Pts',(196.16039593583,-24.91209895751,216.3101775097));
#447=CARTESIAN_POINT('Ctrl Pts',(195.94504940225,-26.59622966911,214.65896660288));
#448=CARTESIAN_POINT('Ctrl Pts',(196.16039593583,-26.72525529555,214.83163296612));
#449=CARTESIAN_POINT('Ctrl Pts',(195.94504940225,-28.12309816431,213.41387646091));
#450=CARTESIAN_POINT('Ctrl Pts',(196.16039593583,-28.53841163359,213.35308842253));
#451=CARTESIAN_POINT('Ctrl Pts',(195.94504940225,-26.32745890524,212.65509062597));
#452=CARTESIAN_POINT('Ctrl Pts',(196.16039593583,-26.40609001345,212.45203024355));
#453=CARTESIAN_POINT('Ctrl Pts',(195.94504940225,-25.2500753498,212.19981912501));
#454=CARTESIAN_POINT('Ctrl Pts',(196.16039593583,-25.12669704137,211.91139533616));
#455=CARTESIAN_POINT('Ctrl Pts',(195.94504940225,-24.85601781033,213.34197168543));
#456=CARTESIAN_POINT('Ctrl Pts',(196.16039593583,-24.65875371324,213.26770150165));
#457=CARTESIAN_POINT('',(195.94504940225,-24.85601781033,213.34197168543));
#458=CARTESIAN_POINT('',(196.16039593583,-24.65875371324,213.26770150165));
#459=CARTESIAN_POINT('',(195.94504940225,-24.85601781033,213.34197168543));
#460=CARTESIAN_POINT('',(195.94504940225,-24.87138018521,213.29999412621));
#461=CARTESIAN_POINT('Origin',(195.94504940225,-25.9080929948021,213.738079332269));
#462=CARTESIAN_POINT('',(196.16039593583,-24.67699653342,213.21785315007));
#463=CARTESIAN_POINT('',(195.94504940225,-24.8713801852183,213.299994126209));
#464=CARTESIAN_POINT('Origin',(196.16039593583,-25.9080929948044,213.738079332268));
#465=CARTESIAN_POINT('Ctrl Pts',(198.45742562742,-28.45763366551,214.93661550825));
#466=CARTESIAN_POINT('Ctrl Pts',(197.7396038488,-29.09501883319,215.23624955224));
#467=CARTESIAN_POINT('Ctrl Pts',(198.45742562742,-28.17374485742,215.59562245808));
#468=CARTESIAN_POINT('Ctrl Pts',(197.7396038488,-28.74015782308,216.06000823954));
#469=CARTESIAN_POINT('Ctrl Pts',(198.45742562742,-27.62843468057,216.04029750878));
#470=CARTESIAN_POINT('Ctrl Pts',(197.7396038488,-28.05852010201,216.61585205291));
#471=CARTESIAN_POINT('Ctrl Pts',(198.45742562742,-23.81126344262,219.15302286369));
#472=CARTESIAN_POINT('Ctrl Pts',(197.7396038488,-23.28705605457,220.50675874654));
#473=CARTESIAN_POINT('Ctrl Pts',(198.45742562742,-23.13933653294,214.14333292146));
#474=CARTESIAN_POINT('Ctrl Pts',(197.7396038488,-22.44714741747,214.24464631876));
#475=CARTESIAN_POINT('Ctrl Pts',(198.45742562742,-22.46740962326,209.13364297923));
#476=CARTESIAN_POINT('Ctrl Pts',(197.7396038488,-21.60723878038,207.98253389097));
#477=CARTESIAN_POINT('Ctrl Pts',(198.45742562742,-26.95650777089,211.03060756655));
#478=CARTESIAN_POINT('Ctrl Pts',(197.7396038488,-27.21861146492,210.35373962513));
#479=CARTESIAN_POINT('Ctrl Pts',(198.45742562742,-29.64996665947,212.16878631895));
#480=CARTESIAN_POINT('Ctrl Pts',(197.7396038488,-30.58543507564,211.77646306562));
#481=CARTESIAN_POINT('Ctrl Pts',(198.45742562742,-28.45763366551,214.93661550825));
#482=CARTESIAN_POINT('Ctrl Pts',(197.7396038488,-29.09501883319,215.23624955224));
#483=CARTESIAN_POINT('',(197.7396038488,-29.09501883319,215.23624955224));
#484=CARTESIAN_POINT('',(198.45742562742,-28.45763366551,214.93661550825));
#485=CARTESIAN_POINT('',(197.7396038488,-29.09501883319,215.23624955224));
#486=CARTESIAN_POINT('',(197.73960384881,-29.14782052475,215.10709560119));
#487=CARTESIAN_POINT('Origin',(197.73960384881,-25.9080929948025,213.738079332268));
#488=CARTESIAN_POINT('',(198.45742562743,-28.49987501876,214.8332923474));
#489=CARTESIAN_POINT('',(198.45742562742,-28.499875018757,214.8332923474));
#490=CARTESIAN_POINT('Origin',(198.45742562742,-25.908092994802,213.738079332263));
#491=CARTESIAN_POINT('Origin',(192.14059397553,-24.126242853325,212.985120384355));
#492=CARTESIAN_POINT('',(192.14059397553,-27.68994313628,214.49103828017));
#493=CARTESIAN_POINT('Origin',(192.14059397553,-25.9080929948004,213.738079332266));
#494=CARTESIAN_POINT('',(192.14059397553,-27.36597038328,214.35413665328));
#495=CARTESIAN_POINT('Origin',(192.14059397553,-25.9080929948038,213.738079332265));
#496=CARTESIAN_POINT('Ctrl Pts',(195.22722762362,-27.68994313627,214.49103828017));
#497=CARTESIAN_POINT('Ctrl Pts',(188.82678409094,-27.68994313627,214.49103828017));
#498=CARTESIAN_POINT('Ctrl Pts',(195.22722762362,-27.27379763095,215.56571047269));
#499=CARTESIAN_POINT('Ctrl Pts',(188.82678409094,-27.27379763095,215.56571047269));
#500=CARTESIAN_POINT('Ctrl Pts',(195.22722762362,-26.17479980755,215.726567095));
#501=CARTESIAN_POINT('Ctrl Pts',(188.82678409094,-26.17479980755,215.726567095));
#502=CARTESIAN_POINT('Ctrl Pts',(195.22722762362,-22.87780633736,216.20913696192));
#503=CARTESIAN_POINT('Ctrl Pts',(188.82678409094,-22.87780633736,216.20913696192));
#504=CARTESIAN_POINT('Ctrl Pts',(195.22722762362,-24.12624285333,212.98512038436));
#505=CARTESIAN_POINT('Ctrl Pts',(188.82678409094,-24.12624285333,212.98512038436));
#506=CARTESIAN_POINT('Ctrl Pts',(195.22722762362,-25.37467936931,209.7611038068));
#507=CARTESIAN_POINT('Ctrl Pts',(188.82678409094,-25.37467936931,209.7611038068));
#508=CARTESIAN_POINT('Ctrl Pts',(195.22722762362,-27.42323632352,212.50255051744));
#509=CARTESIAN_POINT('Ctrl Pts',(188.82678409094,-27.42323632352,212.50255051744));
#510=CARTESIAN_POINT('Ctrl Pts',(195.22722762362,-28.1060886416,213.41636608765));
#511=CARTESIAN_POINT('Ctrl Pts',(188.82678409094,-28.1060886416,213.41636608765));
#512=CARTESIAN_POINT('Ctrl Pts',(195.22722762362,-27.68994313627,214.49103828017));
#513=CARTESIAN_POINT('Ctrl Pts',(188.82678409094,-27.68994313627,214.49103828017));
#514=CARTESIAN_POINT('',(195.22722762362,-27.68994313628,214.49103828017));
#515=CARTESIAN_POINT('Origin',(195.22722762362,-25.9080929948002,213.738079332266));
#516=CARTESIAN_POINT('',(195.22722762362,-27.68994313627,214.49103828017));
#517=CARTESIAN_POINT('Origin',(195.22722762361,-22.66836546485,212.369063063345));
#518=CARTESIAN_POINT('',(195.22722762362,-29.14782052475,215.10709560119));
#519=CARTESIAN_POINT('Origin',(195.22722762362,-25.9080929948027,213.738079332267));
#520=CARTESIAN_POINT('Ctrl Pts',(197.73960384881,-29.14782052475,215.10709560118));
#521=CARTESIAN_POINT('Ctrl Pts',(192.529940508255,-29.14782052475,215.10709560118));
#522=CARTESIAN_POINT('Ctrl Pts',(197.73960384881,-28.39119233325,217.06104504213));
#523=CARTESIAN_POINT('Ctrl Pts',(192.529940508255,-28.39119233325,217.06104504213));
#524=CARTESIAN_POINT('Ctrl Pts',(197.73960384881,-26.39301447252,217.35351162814));
#525=CARTESIAN_POINT('Ctrl Pts',(192.529940508255,-26.39301447252,217.35351162814));
#526=CARTESIAN_POINT('Ctrl Pts',(197.73960384881,-20.39848089036,218.23091138619));
#527=CARTESIAN_POINT('Ctrl Pts',(192.529940508255,-20.39848089036,218.23091138619));
#528=CARTESIAN_POINT('Ctrl Pts',(197.73960384881,-22.66836546486,212.36906306335));
#529=CARTESIAN_POINT('Ctrl Pts',(192.529940508255,-22.66836546486,212.36906306335));
#530=CARTESIAN_POINT('Ctrl Pts',(197.73960384881,-24.93825003936,206.50721474051));
#531=CARTESIAN_POINT('Ctrl Pts',(192.529940508255,-24.93825003936,206.50721474051));
#532=CARTESIAN_POINT('Ctrl Pts',(197.73960384881,-28.66289904702,211.49166330531));
#533=CARTESIAN_POINT('Ctrl Pts',(192.529940508255,-28.66289904702,211.49166330531));
#534=CARTESIAN_POINT('Ctrl Pts',(197.73960384881,-29.90444871624,213.15314616024));
#535=CARTESIAN_POINT('Ctrl Pts',(192.529940508255,-29.90444871624,213.15314616024));
#536=CARTESIAN_POINT('Ctrl Pts',(197.73960384881,-29.14782052475,215.10709560118));
#537=CARTESIAN_POINT('Ctrl Pts',(192.529940508255,-29.14782052475,215.10709560118));
#538=CARTESIAN_POINT('Origin',(197.73960384881,-25.9080929948025,213.738079332268));
#539=CARTESIAN_POINT('',(197.73960384881,-29.14782052475,215.10709560118));
#540=CARTESIAN_POINT('Ctrl Pts',(198.45742562742,-28.45763366551,214.93661550825));
#541=CARTESIAN_POINT('Ctrl Pts',(197.7396038488,-29.09501883319,215.23624955224));
#542=CARTESIAN_POINT('Ctrl Pts',(198.45742562742,-28.17374485742,215.59562245808));
#543=CARTESIAN_POINT('Ctrl Pts',(197.7396038488,-28.74015782308,216.06000823954));
#544=CARTESIAN_POINT('Ctrl Pts',(198.45742562742,-27.62843468057,216.04029750878));
#545=CARTESIAN_POINT('Ctrl Pts',(197.7396038488,-28.05852010201,216.61585205291));
#546=CARTESIAN_POINT('Ctrl Pts',(198.45742562742,-23.81126344262,219.15302286369));
#547=CARTESIAN_POINT('Ctrl Pts',(197.7396038488,-23.28705605457,220.50675874654));
#548=CARTESIAN_POINT('Ctrl Pts',(198.45742562742,-23.13933653294,214.14333292146));
#549=CARTESIAN_POINT('Ctrl Pts',(197.7396038488,-22.44714741747,214.24464631876));
#550=CARTESIAN_POINT('Ctrl Pts',(198.45742562742,-22.46740962326,209.13364297923));
#551=CARTESIAN_POINT('Ctrl Pts',(197.7396038488,-21.60723878038,207.98253389097));
#552=CARTESIAN_POINT('Ctrl Pts',(198.45742562742,-26.95650777089,211.03060756655));
#553=CARTESIAN_POINT('Ctrl Pts',(197.7396038488,-27.21861146492,210.35373962513));
#554=CARTESIAN_POINT('Ctrl Pts',(198.45742562742,-29.64996665947,212.16878631895));
#555=CARTESIAN_POINT('Ctrl Pts',(197.7396038488,-30.58543507564,211.77646306562));
#556=CARTESIAN_POINT('Ctrl Pts',(198.45742562742,-28.45763366551,214.93661550825));
#557=CARTESIAN_POINT('Ctrl Pts',(197.7396038488,-29.09501883319,215.23624955224));
#558=CARTESIAN_POINT('Origin',(198.45742562742,-25.908092994802,213.738079332263));
#559=CARTESIAN_POINT('Origin',(198.45742562742,-23.316310970845,212.64286631713));
#560=CARTESIAN_POINT('',(198.45742562742,-25.07580198415,215.88742371731));
#561=CARTESIAN_POINT('',(198.45742562742,-23.71009734801,214.05979257688));
#562=CARTESIAN_POINT('',(198.45742562743,-25.07580198415,215.88742371731));
#563=CARTESIAN_POINT('',(198.45742562742,-24.54238835866,211.91044819184));
#564=CARTESIAN_POINT('',(198.45742562743,-23.710097348,214.05979257688));
#565=CARTESIAN_POINT('',(198.45742562742,-26.74038400545,211.58873494722));
#566=CARTESIAN_POINT('',(198.45742562743,-24.54238835866,211.91044819183));
#567=CARTESIAN_POINT('',(198.45742562742,-28.1060886416,213.41636608765));
#568=CARTESIAN_POINT('',(198.45742562743,-26.74038400546,211.58873494722));
#569=CARTESIAN_POINT('',(198.45742562742,-27.27379763095,215.56571047269));
#570=CARTESIAN_POINT('',(198.45742562743,-28.1060886416,213.41636608765));
#571=CARTESIAN_POINT('',(198.45742562743,-27.27379763095,215.5657104727));
#572=CARTESIAN_POINT('Origin',(196.16039593583,-26.17479980755,215.726567095));
#573=CARTESIAN_POINT('',(196.16039593583,-25.07580198415,215.88742371731));
#574=CARTESIAN_POINT('',(198.45742562742,-25.07580198415,215.88742371731));
#575=CARTESIAN_POINT('',(196.16039593583,-27.27379763095,215.56571047269));
#576=CARTESIAN_POINT('',(198.45742562742,-27.27379763095,215.5657104727));
#577=CARTESIAN_POINT('',(196.16039593583,-27.27379763095,215.5657104727));
#578=CARTESIAN_POINT('Origin',(196.16039593583,-25.075801984145,215.887423717315));
#579=CARTESIAN_POINT('',(196.16039593583,-28.1060886416,213.41636608765));
#580=CARTESIAN_POINT('',(196.16039593583,-28.1060886416,213.41636608765));
#581=CARTESIAN_POINT('',(196.16039593583,-26.74038400545,211.58873494722));
#582=CARTESIAN_POINT('',(196.16039593583,-26.74038400546,211.58873494722));
#583=CARTESIAN_POINT('',(196.16039593583,-24.54238835866,211.91044819184));
#584=CARTESIAN_POINT('',(196.16039593583,-24.54238835866,211.91044819183));
#585=CARTESIAN_POINT('',(196.16039593583,-23.71009734801,214.05979257688));
#586=CARTESIAN_POINT('',(196.16039593583,-23.710097348,214.05979257688));
#587=CARTESIAN_POINT('',(196.16039593583,-25.07580198415,215.88742371731));
#588=CARTESIAN_POINT('Origin',(196.16039593583,-25.9080929948044,213.738079332268));
#589=CARTESIAN_POINT('Ctrl Pts',(195.94504940225,-24.85601781033,213.34197168543));
#590=CARTESIAN_POINT('Ctrl Pts',(196.16039593583,-24.65875371324,213.26770150165));
#591=CARTESIAN_POINT('Ctrl Pts',(195.94504940225,-24.76219458664,213.61391277124));
#592=CARTESIAN_POINT('Ctrl Pts',(196.16039593583,-24.54733863511,213.59063154105));
#593=CARTESIAN_POINT('Ctrl Pts',(195.94504940225,-24.80059041005,213.90018076794));
#594=CARTESIAN_POINT('Ctrl Pts',(196.16039593583,-24.59293367541,213.93057478713));
#595=CARTESIAN_POINT('Ctrl Pts',(195.94504940225,-25.06936117392,215.90405674485));
#596=CARTESIAN_POINT('Ctrl Pts',(196.16039593583,-24.91209895751,216.3101775097));
#597=CARTESIAN_POINT('Ctrl Pts',(195.94504940225,-26.59622966911,214.65896660288));
#598=CARTESIAN_POINT('Ctrl Pts',(196.16039593583,-26.72525529555,214.83163296612));
#599=CARTESIAN_POINT('Ctrl Pts',(195.94504940225,-28.12309816431,213.41387646091));
#600=CARTESIAN_POINT('Ctrl Pts',(196.16039593583,-28.53841163359,213.35308842253));
#601=CARTESIAN_POINT('Ctrl Pts',(195.94504940225,-26.32745890524,212.65509062597));
#602=CARTESIAN_POINT('Ctrl Pts',(196.16039593583,-26.40609001345,212.45203024355));
#603=CARTESIAN_POINT('Ctrl Pts',(195.94504940225,-25.2500753498,212.19981912501));
#604=CARTESIAN_POINT('Ctrl Pts',(196.16039593583,-25.12669704137,211.91139533616));
#605=CARTESIAN_POINT('Ctrl Pts',(195.94504940225,-24.85601781033,213.34197168543));
#606=CARTESIAN_POINT('Ctrl Pts',(196.16039593583,-24.65875371324,213.26770150165));
#607=CARTESIAN_POINT('',(195.94504940225,-26.94480580439,214.17616453832));
#608=CARTESIAN_POINT('Origin',(195.94504940225,-25.9080929948001,213.738079332265));
#609=CARTESIAN_POINT('Origin',(195.94504940225,-25.9080929948021,213.738079332269));
#610=CARTESIAN_POINT('Ctrl Pts',(190.70495041827,-26.94480580438,214.17616453832));
#611=CARTESIAN_POINT('Ctrl Pts',(201.57081967145,-26.94480580438,214.17616453832));
#612=CARTESIAN_POINT('Ctrl Pts',(190.70495041827,-27.67116886822,212.30037307501));
#613=CARTESIAN_POINT('Ctrl Pts',(201.57081967145,-27.67116886822,212.30037307501));
#614=CARTESIAN_POINT('Ctrl Pts',(190.70495041827,-25.75291812193,212.58114099758));
#615=CARTESIAN_POINT('Ctrl Pts',(201.57081967145,-25.75291812193,212.58114099758));
#616=CARTESIAN_POINT('Ctrl Pts',(190.70495041827,-23.83466737564,212.86190892016));
#617=CARTESIAN_POINT('Ctrl Pts',(201.57081967145,-23.83466737564,212.86190892016));
#618=CARTESIAN_POINT('Ctrl Pts',(190.70495041827,-25.02655505809,214.45693246089));
#619=CARTESIAN_POINT('Ctrl Pts',(201.57081967145,-25.02655505809,214.45693246089));
#620=CARTESIAN_POINT('Ctrl Pts',(190.70495041827,-26.21844274054,216.05195600163));
#621=CARTESIAN_POINT('Ctrl Pts',(201.57081967145,-26.21844274054,216.05195600163));
#622=CARTESIAN_POINT('Ctrl Pts',(190.70495041827,-26.94480580438,214.17616453832));
#623=CARTESIAN_POINT('Ctrl Pts',(201.57081967145,-26.94480580438,214.17616453832));
#624=CARTESIAN_POINT('',(190.70495041827,-26.94480580439,214.17616453832));
#625=CARTESIAN_POINT('',(190.70495041827,-26.94480580438,214.17616453832));
#626=CARTESIAN_POINT('Origin',(190.70495041827,-25.9080929948026,213.738079332266));
#627=CARTESIAN_POINT('Origin',(190.70495041828,-25.31835968325,215.261032200485));
#628=CARTESIAN_POINT('',(190.70495041827,-27.36597038328,214.35413665328));
#629=CARTESIAN_POINT('Origin',(190.70495041827,-25.9080929948025,213.738079332263));
#630=CARTESIAN_POINT('Ctrl Pts',(190.70495041827,-27.36597038328,214.35413665328));
#631=CARTESIAN_POINT('Ctrl Pts',(193.681900898604,-27.36597038328,214.35413665328));
#632=CARTESIAN_POINT('Ctrl Pts',(190.70495041827,-28.3874184418,211.716304908));
#633=CARTESIAN_POINT('Ctrl Pts',(193.681900898604,-28.3874184418,211.716304908));
#634=CARTESIAN_POINT('Ctrl Pts',(190.70495041827,-25.68987832983,212.11113479912));
#635=CARTESIAN_POINT('Ctrl Pts',(193.681900898604,-25.68987832983,212.11113479912));
#636=CARTESIAN_POINT('Ctrl Pts',(190.70495041827,-22.99233821785,212.50596469024));
#637=CARTESIAN_POINT('Ctrl Pts',(193.681900898604,-22.99233821785,212.50596469024));
#638=CARTESIAN_POINT('Ctrl Pts',(190.70495041827,-24.6684302713,214.7489665444));
#639=CARTESIAN_POINT('Ctrl Pts',(193.681900898604,-24.6684302713,214.7489665444));
#640=CARTESIAN_POINT('Ctrl Pts',(190.70495041827,-26.34452232475,216.99196839855));
#641=CARTESIAN_POINT('Ctrl Pts',(193.681900898604,-26.34452232475,216.99196839855));
#642=CARTESIAN_POINT('Ctrl Pts',(190.70495041827,-27.36597038328,214.35413665328));
#643=CARTESIAN_POINT('Ctrl Pts',(193.681900898604,-27.36597038328,214.35413665328));
#644=CARTESIAN_POINT('',(190.70495041827,-27.36597038328,214.35413665328));
#645=CARTESIAN_POINT('Origin',(197.30891078163,-25.07580198416,215.88742371731));
#646=CARTESIAN_POINT('',(198.45742562742,-23.710097348,214.05979257688));
#647=CARTESIAN_POINT('Origin',(197.30891078163,-24.54238835866,211.91044819183));
#648=CARTESIAN_POINT('',(198.45742562742,-24.54238835865,211.91044819183));
#649=CARTESIAN_POINT('Origin',(197.30891078163,-24.54238835866,211.91044819184));
#650=CARTESIAN_POINT('',(198.45742562742,-26.74038400545,211.58873494722));
#651=CARTESIAN_POINT('Origin',(197.30891078163,-28.1060886416,213.41636608765));
#652=CARTESIAN_POINT('',(198.45742562742,-28.1060886416,213.41636608765));
#653=CARTESIAN_POINT('Origin',(196.16039593583,-27.68994313627,214.49103828017));
#654=UNCERTAINTY_MEASURE_WITH_UNIT(LENGTH_MEASURE(0.01),#658,
'DISTANCE_ACCURACY_VALUE',
'Maximum model space distance between geometric entities at asserted c
onnectivities');
#655=UNCERTAINTY_MEASURE_WITH_UNIT(LENGTH_MEASURE(0.01),#658,
'DISTANCE_ACCURACY_VALUE',
'Maximum model space distance between geometric entities at asserted c
onnectivities');
#656=(
GEOMETRIC_REPRESENTATION_CONTEXT(3)
GLOBAL_UNCERTAINTY_ASSIGNED_CONTEXT((#654))
GLOBAL_UNIT_ASSIGNED_CONTEXT((#658,#660,#661))
REPRESENTATION_CONTEXT('','3D')
);
#657=(
GEOMETRIC_REPRESENTATION_CONTEXT(3)
GLOBAL_UNCERTAINTY_ASSIGNED_CONTEXT((#655))
GLOBAL_UNIT_ASSIGNED_CONTEXT((#658,#660,#661))
REPRESENTATION_CONTEXT('','3D')
);
#658=(
LENGTH_UNIT()
NAMED_UNIT(*)
SI_UNIT(.MILLI.,.METRE.)
);
#659=(
LENGTH_UNIT()
NAMED_UNIT(*)
SI_UNIT($,.METRE.)
);
#660=(
NAMED_UNIT(*)
PLANE_ANGLE_UNIT()
SI_UNIT($,.RADIAN.)
);
#661=(
NAMED_UNIT(*)
SI_UNIT($,.STERADIAN.)
SOLID_ANGLE_UNIT()
);
#662=SHAPE_DEFINITION_REPRESENTATION(#663,#664);
#663=PRODUCT_DEFINITION_SHAPE('',$,#666);
#664=SHAPE_REPRESENTATION('',(#331),#656);
#665=PRODUCT_DEFINITION_CONTEXT('part definition',#670,'design');
#666=PRODUCT_DEFINITION('2026-07-16-20-45-03-144',
'scaled_gripper_part_158',#667,#665);
#667=PRODUCT_DEFINITION_FORMATION('',$,#672);
#668=PRODUCT_RELATED_PRODUCT_CATEGORY('scaled_gripper_part_158',
'scaled_gripper_part_158',(#672));
#669=APPLICATION_PROTOCOL_DEFINITION('international standard',
'automotive_design',2009,#670);
#670=APPLICATION_CONTEXT(
'Core Data for Automotive Mechanical Design Process');
#671=PRODUCT_CONTEXT('part definition',#670,'mechanical');
#672=PRODUCT('2026-07-16-20-45-03-144','scaled_gripper_part_158',$,(#671));
#673=PRESENTATION_STYLE_ASSIGNMENT((#675));
#674=PRESENTATION_STYLE_ASSIGNMENT((#676));
#675=SURFACE_STYLE_USAGE(.BOTH.,#677);
#676=SURFACE_STYLE_USAGE(.BOTH.,#678);
#677=SURFACE_SIDE_STYLE('',(#679));
#678=SURFACE_SIDE_STYLE('',(#680));
#679=SURFACE_STYLE_FILL_AREA(#681);
#680=SURFACE_STYLE_FILL_AREA(#682);
#681=FILL_AREA_STYLE('\X2\AC15CCA0\X0\ - \X2\C0C8D2F4\X0\',(#683));
#682=FILL_AREA_STYLE('Opaque(160,160,160)',(#684));
#683=FILL_AREA_STYLE_COLOUR('\X2\AC15CCA0\X0\ - \X2\C0C8D2F4\X0\',#685);
#684=FILL_AREA_STYLE_COLOUR('Opaque(160,160,160)',#686);
#685=COLOUR_RGB('\X2\AC15CCA0\X0\ - \X2\C0C8D2F4\X0\',0.627450980392157,
0.627450980392157,0.627450980392157);
#686=COLOUR_RGB('Opaque(160,160,160)',0.627450980392157,0.627450980392157,
0.627450980392157);
ENDSEC;
END-ISO-10303-21;
